<?xml version="1.0" encoding="utf-8"?>
<!-- Designed by Vexels.com - 2020 All Rights Reserved - https://vexels.com/terms-and-conditions/  -->
<svg version="1.1" id="Capa_1" xmlns="http://www.w3.org/2000/svg" xmlns:xlink="http://www.w3.org/1999/xlink" x="0px" y="0px"
	 viewBox="0 0 1200 1200" enable-background="new 0 0 1200 1200" xml:space="preserve">
<g>
	<path fill="#232A59" d="M1138.262,701.662l-127.293-326.344c-14.907-38.206-43.301-69.851-79.991-89.14
		c-25.719-14.581-54.788-22.287-84.103-22.287H360.799c-12.613,0-25.602,1.54-38.632,4.573
		c-60.191,9.648-111.16,50.526-133.136,106.854L61.738,701.662c-16.591,42.533-15.564,89.125,2.892,131.195
		c18.462,42.063,52.048,74.371,94.587,90.961c83.47,32.577,170.178-4.658,221.123-95.232l30.641-57.534h377.192l31.597,57.745
		c0.235,0.422,0.481,0.839,0.739,1.244c52.23,81.54,108.96,106.068,158.316,106.068c22.575,0,43.606-5.133,61.957-12.291
		c42.539-16.591,76.125-48.898,94.587-90.961C1153.826,790.787,1154.853,744.195,1138.262,701.662z M468.116,305.943h263.768
		v108.233c0,19.213-14.244,34.848-31.75,34.848H499.866c-17.506,0-31.75-15.634-31.75-34.848V305.943z M1096.862,815.961
		c-13.945,31.779-39.289,56.173-71.355,68.68c-64.491,25.162-119.831,0.065-169.198-76.676l-37.229-68.035
		C815.389,733.189,808.32,729,800.634,729H398.357c-7.767,0-14.907,4.283-18.556,11.141l-36.344,68.252
		c-40.45,71.907-105.188,101.128-168.964,76.248c-66.515-25.948-99.527-101.175-73.579-167.702l127.293-326.335
		c16.649-42.676,55.445-73.602,101.24-80.715c0.551-0.085,1.097-0.194,1.637-0.32c10.114-2.405,20.111-3.626,29.714-3.626h65.266
		v108.233c0,42.404,33.105,76.899,73.802,76.899h200.268c40.697,0,73.802-34.496,73.802-76.899V305.943h72.939
		c22.146,0,44.146,5.864,63.606,16.957c0.223,0.123,0.446,0.246,0.669,0.364c27.849,14.564,49.385,38.479,60.643,67.334
		l127.293,326.341C1111.593,749.011,1110.807,784.176,1096.862,815.961z"/>
	<path fill="#232A59" d="M472.604,533.338c-45.014,0-81.639,36.619-81.639,81.634c0,45.014,36.625,81.639,81.639,81.639
		s81.634-36.625,81.634-81.639C554.238,569.957,517.618,533.338,472.604,533.338z M472.604,654.559
		c-21.83,0-39.588-17.758-39.588-39.588c0-21.824,17.758-39.582,39.588-39.582c21.824,0,39.582,17.758,39.582,39.582
		C512.186,636.801,494.428,654.559,472.604,654.559z"/>
	<path fill="#232A59" d="M727.396,533.338c-45.014,0-81.634,36.619-81.634,81.634c0,45.014,36.619,81.639,81.634,81.639
		c45.014,0,81.639-36.625,81.639-81.639C809.035,569.957,772.41,533.338,727.396,533.338z M727.396,654.559
		c-21.824,0-39.582-17.758-39.582-39.588c0-21.824,17.758-39.582,39.582-39.582c21.83,0,39.588,17.758,39.588,39.582
		C766.984,636.801,749.225,654.559,727.396,654.559z"/>
	<path fill="#232A59" d="M405.971,488.558c0-11.61-9.416-21.026-21.026-21.026h-43.577v-43.571c0-11.61-9.416-21.026-21.026-21.026
		c-11.61,0-21.026,9.416-21.026,21.026v43.571h-43.571c-11.61,0-21.026,9.416-21.026,21.026s9.416,21.026,21.026,21.026h43.571
		v43.577c0,11.61,9.416,21.026,21.026,21.026c11.61,0,21.026-9.416,21.026-21.026v-43.577h43.577
		C396.556,509.584,405.971,500.168,405.971,488.558z"/>
	<path fill="#232A59" d="M824.711,457.829c-15.089,0-27.368,12.279-27.368,27.374s12.279,27.374,27.368,27.374
		c15.095,0,27.373-12.279,27.373-27.374S839.806,457.829,824.711,457.829z"/>
	<path fill="#232A59" d="M939.356,457.829c-15.095,0-27.373,12.279-27.373,27.374s12.279,27.374,27.373,27.374
		c15.089,0,27.368-12.279,27.368-27.374S954.445,457.829,939.356,457.829z"/>
	<path fill="#232A59" d="M882.033,519.076c-15.089,0-27.368,12.279-27.368,27.368c0,15.095,12.279,27.374,27.368,27.374
		c15.095,0,27.373-12.279,27.373-27.374C909.407,531.355,897.128,519.076,882.033,519.076z"/>
	<path fill="#232A59" d="M882.033,396.588c-15.089,0-27.368,12.279-27.368,27.374c0,15.089,12.279,27.368,27.368,27.368
		c15.095,0,27.373-12.279,27.373-27.368C909.407,408.867,897.128,396.588,882.033,396.588z"/>
</g>
</svg>
